# xmcd
#
# Track frame offsets:
#	150
#	10280
#	21720
#	34424
#	47205
#	59425
#	72225
#	84802
#	100129
#	114333
#	126550
#	141265
#	151700
#	167880
#	180991
#	195947
#	206760
#	219560
#	231557
#	240285
#	252648
#	259504
#	274824
#	288855
#	303698
#	317872
#	340591
#
# Disc length: 4703 seconds
#
# Revision: 0
# Processed by: cddbd v1.5.2PL0 Copyright (c) Steve Scherf et al.
# Submitted via: EasyCDDAExtractor 15.3.0.1
#
DISCID=8f125d1b
DTITLE=Wills Bob - Faded Love CD 12
DYEAR=1900
DGENRE=
TTITLE0=Blue Bonnet Lane (1974)
TTITLE1=What Makes Bob Holler (1974)
TTITLE2=When You Leave Amarillo (1974)
TTITLE3=Comin' Down From Denver (1974)
TTITLE4=Going Away Party (1974)
TTITLE5=My Shoes Keep Walking Back To You (1974)
TTITLE6=Silver Lake Blues (1974)
TTITLE7=La Golondrina (1974 Uniss.)
TTITLE8=Twinkle Twinkle Little Star (1974 Uniss.)
TTITLE9=Big Balls In Cowtown (1974)
TTITLE10=Bob Wills Special (1974 Uniss.)
TTITLE11=Miss Molly (1974)
TTITLE12=Keeper Of My Heart (1974)
TTITLE13=Bubbles In My Beer (1974)
TTITLE14=Twin Guitar Special (1974)
TTITLE15=I Can't Go On This Way (1974)
TTITLE16=I Wonder If You Feel The Way I Do (1974)
TTITLE17=Yearning (1974)
TTITLE18=Crippled Turkey (1974)
TTITLE19=She's Really Gone (1974)
TTITLE20=Playboy Theme (1974)
TTITLE21=Baby That Would Sure Go Good (1974)
TTITLE22=Stay A Little Longer (1974)
TTITLE23=Faded Love (1974)
TTITLE24=San Antonio Rose (1974)
TTITLE25=Milk Cow Blues (1974)
TTITLE26=That's What I Like About The South
EXTD=
EXTT0=
EXTT1=
EXTT2=
EXTT3=
EXTT4=
EXTT5=
EXTT6=
EXTT7=
EXTT8=
EXTT9=
EXTT10=
EXTT11=
EXTT12=
EXTT13=
EXTT14=
EXTT15=
EXTT16=
EXTT17=
EXTT18=
EXTT19=
EXTT20=
EXTT21=
EXTT22=
EXTT23=
EXTT24=
EXTT25=
EXTT26=
PLAYORDER=
